<?xml version="1.0" encoding="utf-8" ?>
<svg version="1.1" xmlns="http://www.w3.org/2000/svg" xmlns:xlink="http://www.w3.org/1999/xlink" x="0px" y="0px" width="200px"
     height="200px" viewBox="1052 675 200 200" enable-background="new 1052 675 200 200" xml:space="preserve" id="MLLogo-Ajax-Circle">
<g >
      <path fill="#FFF" d="M1241.183,775.062c0-12.106-2.372-23.852-7.048-34.908c-2.248-5.315-5.029-10.44-8.269-15.234
		          c-3.208-4.749-6.894-9.214-10.95-13.273c-4.06-4.058-8.524-7.743-13.272-10.951c-4.795-3.239-9.92-6.021-15.234-8.269
		          c-5.346-2.26-10.854-3.981-16.482-5.157c0.222-0.495,0.34-1.004,0.34-1.527c0-4.452-8.445-8.061-18.864-8.061
		          c-5.201,0-9.912,0.9-13.324,2.356c-0.159,0.03-0.319,0.061-0.479,0.094c-2.813,0.544-5.958,1.285-9.322,2.298
		          c-0.209,0.064-0.42,0.127-0.633,0.191c-0.213,0.063-0.426,0.125-0.638,0.197c-0.426,0.14-0.855,0.281-1.29,0.422
		          c-0.216,0.071-0.434,0.144-0.652,0.215c-0.219,0.072-0.436,0.153-0.655,0.23c-0.438,0.155-0.878,0.313-1.323,0.471
		          c-0.111,0.039-0.222,0.08-0.334,0.119c-0.11,0.042-0.221,0.084-0.333,0.127c-0.222,0.085-0.445,0.17-0.669,0.257
		          c-0.447,0.174-0.898,0.343-1.351,0.525c-0.45,0.186-0.902,0.373-1.358,0.562c-0.228,0.095-0.456,0.189-0.686,0.285
		          c-0.228,0.101-0.455,0.202-0.685,0.303c-0.457,0.203-0.917,0.408-1.379,0.613c-0.46,0.212-0.919,0.434-1.383,0.653
		          c-0.23,0.11-0.463,0.219-0.695,0.33c-0.232,0.11-0.462,0.231-0.693,0.347c-0.463,0.234-0.927,0.468-1.394,0.704
		          c-0.464,0.243-0.926,0.495-1.392,0.744c-0.232,0.125-0.467,0.25-0.7,0.376c-0.231,0.131-0.463,0.262-0.694,0.394
		          c-0.464,0.264-0.929,0.529-1.396,0.795c-0.461,0.277-0.923,0.556-1.388,0.836c-0.231,0.142-0.467,0.275-0.695,0.423
		          c-0.229,0.146-0.459,0.292-0.689,0.438s-0.461,0.293-0.692,0.44l-0.347,0.221c-0.114,0.073-0.228,0.152-0.342,0.228
		          c-0.456,0.307-0.914,0.613-1.373,0.921c-0.231,0.152-0.456,0.315-0.682,0.474c-0.227,0.16-0.454,0.32-0.68,0.48
		          c-0.227,0.161-0.454,0.321-0.68,0.481c-0.224,0.167-0.448,0.333-0.673,0.499c-0.447,0.335-0.899,0.664-1.343,1.006
		          c-0.442,0.345-0.885,0.691-1.328,1.038l-0.333,0.26l-0.326,0.269c-0.218,0.179-0.437,0.357-0.654,0.537
		          c-0.219,0.18-0.437,0.36-0.655,0.539c-0.217,0.181-0.429,0.368-0.645,0.553c-0.427,0.372-0.86,0.737-1.284,1.115
		          c-0.42,0.38-0.842,0.762-1.263,1.144c-0.105,0.095-0.211,0.19-0.315,0.288l-0.309,0.294l-0.618,0.587l-0.62,0.588l-0.606,0.604
		          l-0.605,0.604c-0.201,0.201-0.405,0.4-0.6,0.608c-0.394,0.411-0.788,0.824-1.182,1.236c-0.2,0.203-0.387,0.418-0.58,0.628
		          l-0.576,0.63c-1.523,1.693-2.999,3.422-4.382,5.211l-0.263,0.333l-0.131,0.167l-0.127,0.168c-0.168,0.226-0.338,0.452-0.508,0.676
		          c-0.336,0.452-0.68,0.896-1.002,1.356c-0.326,0.457-0.652,0.913-0.977,1.367c-0.314,0.463-0.628,0.924-0.941,1.385
		          c-2.478,3.697-4.644,7.497-6.473,11.29c-0.115,0.236-0.23,0.472-0.345,0.707c-0.109,0.238-0.218,0.476-0.327,0.713
		          c-0.217,0.474-0.438,0.943-0.646,1.416c-0.407,0.949-0.821,1.882-1.188,2.824c-0.095,0.234-0.188,0.468-0.282,0.7
		          c-0.047,0.117-0.094,0.233-0.14,0.349c-0.044,0.118-0.088,0.234-0.132,0.352c-0.175,0.467-0.349,0.931-0.521,1.393
		          c-0.043,0.115-0.085,0.23-0.128,0.345c-0.042,0.116-0.081,0.232-0.121,0.348c-0.081,0.231-0.16,0.462-0.24,0.691
		          s-0.159,0.458-0.238,0.686c-0.041,0.114-0.08,0.228-0.119,0.342c-0.037,0.114-0.073,0.229-0.11,0.343
		          c-1.19,3.645-2.098,7.148-2.75,10.409c-0.651,3.263-1.065,6.278-1.324,8.954c-0.248,2.49-0.339,4.689-0.381,6.531
		          c-0.165,2.235-0.249,4.486-0.249,6.749c0,12.107,2.372,23.853,7.047,34.907c2.249,5.314,5.03,10.441,8.269,15.234
		          c3.208,4.75,6.893,9.216,10.951,13.274c4.059,4.059,8.524,7.742,13.273,10.95c4.794,3.238,9.92,6.021,15.234,8.268
		          c5.284,2.237,10.726,3.942,16.288,5.119c-0.1,0.335-0.151,0.678-0.151,1.026c0,4.452,8.445,8.062,18.862,8.062
		          c5.203,0,9.913-0.899,13.326-2.355c0.157-0.031,0.318-0.062,0.478-0.094c2.813-0.545,5.959-1.285,9.322-2.299
		          c0.21-0.063,0.422-0.128,0.633-0.191c0.214-0.063,0.428-0.125,0.64-0.196c0.425-0.141,0.854-0.279,1.289-0.422
		          c0.216-0.071,0.433-0.143,0.651-0.216c0.22-0.071,0.436-0.151,0.654-0.23c0.438-0.155,0.879-0.311,1.323-0.47
		          c0.112-0.04,0.223-0.081,0.333-0.12c0.113-0.043,0.224-0.085,0.334-0.126c0.223-0.086,0.446-0.172,0.669-0.259
		          c0.448-0.172,0.899-0.343,1.351-0.524c0.45-0.186,0.903-0.373,1.359-0.562c0.229-0.094,0.457-0.189,0.686-0.285
		          c0.229-0.102,0.455-0.202,0.684-0.304c0.457-0.202,0.918-0.406,1.381-0.61c0.459-0.214,0.918-0.436,1.381-0.654
		          c0.232-0.11,0.465-0.22,0.697-0.33s0.461-0.23,0.693-0.347c0.463-0.232,0.928-0.468,1.395-0.704
		          c0.465-0.244,0.926-0.495,1.392-0.744c0.232-0.126,0.467-0.249,0.699-0.377c0.232-0.129,0.463-0.26,0.695-0.394
		          c0.463-0.262,0.928-0.528,1.396-0.794c0.461-0.277,0.922-0.555,1.387-0.836c0.232-0.141,0.467-0.275,0.695-0.424
		          c0.23-0.146,0.459-0.292,0.689-0.438c0.23-0.146,0.461-0.292,0.691-0.44l0.347-0.219c0.116-0.075,0.229-0.153,0.343-0.229
		          c0.458-0.308,0.915-0.615,1.374-0.922c0.23-0.152,0.455-0.314,0.682-0.473c0.228-0.161,0.452-0.322,0.681-0.481
		          c0.225-0.159,0.453-0.32,0.68-0.481c0.224-0.165,0.448-0.332,0.673-0.498c0.446-0.334,0.899-0.664,1.344-1.007
		          c0.44-0.345,0.885-0.691,1.327-1.038l0.331-0.26l0.328-0.271c0.218-0.178,0.435-0.355,0.654-0.536
		          c0.217-0.18,0.437-0.359,0.653-0.539c0.218-0.18,0.43-0.367,0.645-0.551c0.428-0.371,0.86-0.738,1.284-1.115
		          c0.421-0.38,0.843-0.763,1.265-1.145c0.104-0.096,0.212-0.189,0.314-0.289l0.31-0.292l0.618-0.589l0.618-0.588l0.607-0.604
		          l0.604-0.604c0.202-0.202,0.406-0.399,0.602-0.607c0.394-0.412,0.787-0.824,1.181-1.236c0.2-0.202,0.388-0.418,0.58-0.626
		          l0.575-0.633c1.523-1.69,3-3.422,4.384-5.21l0.262-0.333l0.131-0.165l0.126-0.171c0.171-0.225,0.339-0.451,0.51-0.676
		          c0.335-0.452,0.68-0.896,1.002-1.356c0.326-0.456,0.652-0.911,0.977-1.366c0.315-0.463,0.628-0.924,0.94-1.385
		          c2.479-3.695,4.646-7.497,6.475-11.29c0.114-0.236,0.23-0.472,0.345-0.706c0.108-0.24,0.217-0.477,0.328-0.714
		          c0.215-0.475,0.437-0.943,0.645-1.415c0.404-0.95,0.82-1.883,1.186-2.826c0.096-0.231,0.189-0.466,0.283-0.698
		          c0.047-0.116,0.094-0.232,0.139-0.349c0.045-0.118,0.088-0.234,0.133-0.351c0.175-0.469,0.349-0.934,0.521-1.395
		          c0.043-0.114,0.086-0.229,0.129-0.345c0.039-0.116,0.081-0.232,0.12-0.349c0.08-0.23,0.161-0.461,0.239-0.689
		          c0.081-0.23,0.159-0.459,0.238-0.686c0.039-0.116,0.081-0.229,0.118-0.343s0.075-0.229,0.11-0.343
		          c1.192-3.645,2.099-7.146,2.751-10.409s1.066-6.279,1.324-8.955c0.207-2.084,0.306-3.965,0.356-5.603
		          C1241.089,779.836,1241.183,777.457,1241.183,775.062z M1062.544,775.062c0-2.676,0.12-5.326,0.353-7.944
		          c0.212-1.529,0.49-3.254,0.877-5.139c0.528-2.595,1.239-5.494,2.199-8.591c0.962-3.095,2.19-6.383,3.695-9.754
		          c0.046-0.105,0.093-0.211,0.14-0.317c0.048-0.104,0.098-0.21,0.147-0.314c0.098-0.211,0.198-0.422,0.296-0.634
		          c0.099-0.211,0.199-0.423,0.298-0.637c0.051-0.106,0.101-0.213,0.15-0.319c0.053-0.106,0.105-0.211,0.158-0.317
		          c0.211-0.423,0.423-0.849,0.636-1.277c0.053-0.107,0.106-0.214,0.16-0.32c0.056-0.107,0.112-0.213,0.168-0.319
		          c0.112-0.212,0.225-0.425,0.337-0.639c0.442-0.858,0.929-1.705,1.408-2.564c0.243-0.428,0.5-0.851,0.751-1.279
		          c0.127-0.213,0.252-0.428,0.38-0.641c0.131-0.211,0.263-0.423,0.396-0.636c2.102-3.403,4.51-6.758,7.179-9.962
		          c0.335-0.397,0.672-0.796,1.009-1.196c0.347-0.391,0.693-0.783,1.041-1.176c0.342-0.396,0.706-0.775,1.061-1.161l0.536-0.576
		          l0.133-0.145l0.138-0.141l0.274-0.283c1.45-1.521,2.979-2.973,4.539-4.379l0.588-0.524c0.197-0.174,0.389-0.352,0.591-0.52
		          c0.4-0.339,0.799-0.68,1.199-1.019c0.197-0.171,0.404-0.333,0.607-0.499l0.609-0.493l0.61-0.492l0.62-0.477l0.619-0.476l0.31-0.238
		          c0.103-0.08,0.208-0.155,0.313-0.232c0.42-0.307,0.838-0.613,1.256-0.918c0.419-0.302,0.848-0.593,1.27-0.889
		          c0.211-0.146,0.42-0.296,0.634-0.438c0.216-0.142,0.429-0.284,0.644-0.425c0.213-0.141,0.427-0.282,0.641-0.423l0.32-0.211
		          l0.324-0.204c0.433-0.271,0.864-0.542,1.293-0.811c0.433-0.266,0.872-0.519,1.303-0.777c0.217-0.129,0.434-0.256,0.649-0.384
		          c0.219-0.123,0.438-0.246,0.657-0.368c0.218-0.122,0.436-0.245,0.653-0.367c0.219-0.122,0.433-0.246,0.655-0.36
		          c0.438-0.232,0.876-0.464,1.313-0.694c0.108-0.057,0.216-0.116,0.326-0.171l0.331-0.165c0.219-0.109,0.438-0.218,0.658-0.328
		          c0.218-0.109,0.437-0.218,0.655-0.326c0.215-0.111,0.438-0.208,0.658-0.312c0.438-0.206,0.875-0.41,1.31-0.614
		          c0.438-0.193,0.876-0.384,1.312-0.575c0.217-0.096,0.434-0.19,0.65-0.285c0.22-0.089,0.437-0.178,0.654-0.267
		          c0.436-0.177,0.867-0.357,1.297-0.528c0.434-0.165,0.866-0.329,1.295-0.492c0.214-0.081,0.426-0.166,0.642-0.242
		          c0.215-0.076,0.429-0.151,0.644-0.227c0.427-0.149,0.851-0.302,1.273-0.446c0.425-0.138,0.847-0.275,1.267-0.411
		          c0.209-0.068,0.417-0.136,0.625-0.204c0.21-0.062,0.419-0.124,0.628-0.185c0.415-0.124,0.828-0.247,1.238-0.369
		          c0.411-0.116,0.821-0.223,1.227-0.333c0.204-0.055,0.405-0.109,0.606-0.163c0.102-0.027,0.201-0.054,0.302-0.081
		          c0.101-0.024,0.201-0.049,0.302-0.073c0.401-0.097,0.799-0.194,1.194-0.29c0.198-0.047,0.393-0.099,0.588-0.141
		          c0.197-0.042,0.393-0.084,0.587-0.126c0.389-0.083,0.774-0.167,1.155-0.249c0.19-0.044,0.381-0.077,0.571-0.113
		          c0.189-0.036,0.378-0.071,0.566-0.107c3.002-0.572,5.776-0.925,8.237-1.139c1.229-0.117,2.385-0.171,3.45-0.233
		          c0.03-0.001,0.058-0.002,0.088-0.003c2.525,0.537,5.373,0.838,8.385,0.838c8.629,0,15.905-2.475,18.148-5.855
		          c40.426,8.365,70.904,44.246,70.904,87.113c0,2.19-0.08,4.36-0.237,6.512c-0.227,1.739-0.532,3.771-0.999,6.034
		          c-0.526,2.593-1.238,5.492-2.198,8.589c-0.963,3.096-2.192,6.383-3.694,9.754c-0.047,0.104-0.094,0.211-0.141,0.316
		          c-0.049,0.104-0.098,0.21-0.146,0.314c-0.1,0.21-0.198,0.422-0.298,0.634c-0.098,0.212-0.197,0.423-0.296,0.637
		          c-0.051,0.107-0.102,0.214-0.15,0.318c-0.053,0.107-0.104,0.212-0.159,0.318c-0.21,0.424-0.422,0.848-0.635,1.276
		          c-0.053,0.107-0.107,0.214-0.161,0.32c-0.057,0.107-0.111,0.214-0.167,0.319c-0.112,0.213-0.225,0.425-0.339,0.639
		          c-0.44,0.859-0.93,1.705-1.408,2.565c-0.243,0.427-0.5,0.851-0.751,1.277c-0.125,0.214-0.253,0.428-0.378,0.641
		          c-0.132,0.212-0.265,0.424-0.397,0.638c-2.101,3.402-4.509,6.757-7.179,9.961c-0.336,0.397-0.673,0.797-1.008,1.195
		          c-0.347,0.394-0.693,0.783-1.042,1.177c-0.341,0.396-0.707,0.776-1.061,1.162l-0.536,0.577l-0.133,0.143l-0.139,0.143l-0.273,0.28
		          c-1.451,1.521-2.979,2.974-4.541,4.382l-0.588,0.524c-0.197,0.172-0.388,0.351-0.591,0.517c-0.4,0.342-0.8,0.681-1.199,1.02
		          c-0.198,0.173-0.404,0.334-0.606,0.499l-0.611,0.492l-0.608,0.493l-0.62,0.476l-0.619,0.477l-0.309,0.239
		          c-0.104,0.079-0.21,0.154-0.313,0.23c-0.42,0.306-0.837,0.613-1.255,0.92c-0.42,0.302-0.85,0.593-1.271,0.889
		          c-0.212,0.146-0.42,0.296-0.636,0.438c-0.213,0.143-0.427,0.283-0.643,0.423c-0.214,0.143-0.427,0.283-0.641,0.424l-0.318,0.214
		          l-0.324,0.202c-0.434,0.27-0.864,0.542-1.295,0.81c-0.432,0.266-0.869,0.521-1.303,0.779c-0.215,0.128-0.433,0.255-0.648,0.383
		          c-0.219,0.123-0.438,0.247-0.657,0.369c-0.218,0.121-0.435,0.245-0.652,0.365c-0.219,0.123-0.435,0.247-0.655,0.361
		          c-0.438,0.232-0.875,0.463-1.313,0.695c-0.108,0.057-0.217,0.116-0.325,0.171l-0.332,0.164c-0.22,0.111-0.438,0.22-0.657,0.328
		          c-0.218,0.109-0.438,0.218-0.654,0.326c-0.216,0.11-0.44,0.208-0.658,0.312c-0.438,0.206-0.875,0.412-1.31,0.614
		          c-0.44,0.193-0.877,0.384-1.312,0.575c-0.218,0.096-0.435,0.189-0.65,0.285c-0.219,0.088-0.437,0.178-0.656,0.268
		          c-0.435,0.177-0.865,0.356-1.296,0.528c-0.435,0.165-0.866,0.328-1.295,0.491c-0.214,0.08-0.426,0.167-0.641,0.241
		          c-0.216,0.077-0.432,0.152-0.645,0.228c-0.428,0.149-0.851,0.302-1.272,0.445c-0.426,0.139-0.848,0.275-1.267,0.411
		          c-0.21,0.068-0.418,0.137-0.626,0.204c-0.21,0.062-0.42,0.123-0.628,0.186c-0.416,0.121-0.828,0.245-1.238,0.367
		          c-0.411,0.116-0.823,0.223-1.228,0.333c-0.202,0.055-0.405,0.109-0.605,0.163c-0.102,0.026-0.202,0.055-0.302,0.081
		          c-0.101,0.024-0.2,0.049-0.302,0.072c-0.4,0.098-0.8,0.195-1.193,0.289c-0.198,0.049-0.394,0.1-0.59,0.143
		          c-0.195,0.041-0.393,0.082-0.587,0.125c-0.388,0.085-0.774,0.167-1.154,0.25c-0.191,0.045-0.382,0.076-0.571,0.112
		          c-0.189,0.037-0.379,0.073-0.566,0.108c-3.002,0.571-5.776,0.926-8.237,1.14c-1.23,0.116-2.385,0.172-3.449,0.232
		          c-0.03,0-0.059,0.001-0.088,0.003c-2.526-0.537-5.374-0.839-8.387-0.839c-9.031,0-16.579,2.713-18.428,6.335
		          C1092.881,853.641,1062.544,817.828,1062.544,775.062z" />
  </g>
</svg>