<?xml version="1.0" encoding="utf-8"?>
<!-- Generator: Adobe Illustrator 16.0.0, SVG Export Plug-In . SVG Version: 6.00 Build 0)  -->
<!DOCTYPE svg PUBLIC "-//W3C//DTD SVG 1.1//EN" "http://www.w3.org/Graphics/SVG/1.1/DTD/svg11.dtd">
<svg version="1.1" id="Layer_1" xmlns="http://www.w3.org/2000/svg" xmlns:xlink="http://www.w3.org/1999/xlink" x="0px" y="0px"
	 width="270px" height="280px" viewBox="0 0 270 280" enable-background="new 0 0 270 280" xml:space="preserve">
<g>
	<path fill-rule="evenodd" clip-rule="evenodd" fill="#41B554" d="M9.187,132.27c0.094-19.917,5.405-42.017,16.44-62.656
		c11.21-20.967,26.802-37.888,47.168-50.281c10.231-6.226,21.172-10.802,32.8-13.71c5.718-1.431,11.508-2.472,17.374-3.044
		c6.273-0.613,12.557-0.747,18.857-0.362c9.987,0.611,19.735,2.452,29.254,5.509c12.388,3.979,23.879,9.769,34.438,17.357
		c23.317,16.757,39.642,38.852,49.784,65.611c3.596,9.486,6.11,19.266,7.699,29.287c1.362,8.599,1.99,17.25,1.771,25.947
		c-0.718,28.482-8.787,54.648-25.007,78.154c-10.942,15.859-24.736,28.703-41.515,38.254c-11.563,6.58-23.895,11.08-36.994,13.453
		c-8.403,1.521-16.865,2.338-25.413,2.094c-16.418-0.469-32.066-4.217-46.962-11.115c-12.275-5.682-23.355-13.162-33.269-22.352
		c-18.718-17.352-31.603-38.381-39.293-62.65c-2.483-7.838-4.246-15.842-5.443-23.977C9.798,150.473,9.186,143.125,9.187,132.27z
		 M239.197,141.066c-0.095-2.137-0.134-5.053-0.374-7.95c-0.294-3.555-0.557-7.131-1.179-10.637
		c-2.542-14.318-7.503-27.767-14.999-40.242c-10.318-17.174-24.025-30.923-41.639-40.597c-17.229-9.462-35.647-13.542-55.292-11.732
		c-6.712,0.618-13.285,1.94-19.696,4.011C87.073,40.038,71.508,51.08,59.166,66.611c-15.207,19.136-22.949,41.117-24.237,65.43
		c-0.565,10.662,0.394,21.225,2.646,31.66c4.242,19.662,12.864,37.141,26.231,52.211c9.639,10.867,21.014,19.447,34.199,25.586
		c11.252,5.238,23.078,8.242,35.469,8.979c6.659,0.395,13.288,0.059,19.886-0.938c8.276-1.248,16.255-3.531,23.903-6.922
		c17.37-7.699,31.285-19.578,41.982-35.201C232.763,187.672,238.993,165.664,239.197,141.066z"/>
	<path fill-rule="evenodd" clip-rule="evenodd" fill="#41B554" d="M109.773,187.449c0.023-0.24,0.044-0.375,0.049-0.512
		c0.175-4.586,0.213-9.182,0.554-13.756c0.515-6.918,1.703-13.744,3.279-20.502c4.266-18.293,11.462-35.407,20.879-51.613
		c7.684-13.224,16.582-25.559,27.164-36.636c3.732-3.907,7.627-7.649,12.108-10.7c1.494-1.017,3.15-1.806,4.776-2.609
		c1.109-0.548,2.235-0.364,3.335,0.214c2.553,1.341,4.805,3.107,7.022,4.917c6.203,5.063,12.001,10.577,17.816,16.071
		c1.875,1.771,3.771,3.521,5.656,5.281c0.084,0.078,0.156,0.167,0.194,0.209c-2.852,2.105-5.732,4.139-8.514,6.301
		c-12.216,9.499-23.106,20.363-32.981,32.255c-12.045,14.503-22.2,30.217-30.171,47.321c-6.247,13.406-10.926,27.334-13.832,41.842
		c-1.325,6.613-2.296,13.283-2.748,20.018c-0.238,3.539-0.353,7.088-0.523,10.633c-0.011,0.232-0.024,0.467-0.044,0.873
		c-0.283-0.281-0.477-0.463-0.657-0.656c-8.737-9.389-18.039-18.174-28.046-26.199c-10.05-8.061-20.651-15.275-32.318-20.83
		c-1.856-0.883-3.764-1.658-5.636-2.508c-0.252-0.115-0.539-0.336-0.637-0.58c-2.309-5.691-4.651-11.373-6.85-17.109
		c-0.688-1.795-1.008-3.734-1.44-5.621c-0.231-1.01,0.18-1.695,1.223-1.729c1.403-0.045,2.848,0.02,4.217,0.311
		c5.153,1.094,10.048,3.006,14.901,5.004c13.044,5.371,25.735,11.479,38.026,18.408
		C107.627,186.139,108.648,186.777,109.773,187.449z"/>
</g>
</svg>
