<?xml version="1.0" encoding="utf-8"?>
<!-- Generator: Adobe Illustrator 16.0.0, SVG Export Plug-In . SVG Version: 6.00 Build 0)  -->
<!DOCTYPE svg PUBLIC "-//W3C//DTD SVG 1.1//EN" "http://www.w3.org/Graphics/SVG/1.1/DTD/svg11.dtd">
<svg version="1.1" id="Layer_1" xmlns="http://www.w3.org/2000/svg" xmlns:xlink="http://www.w3.org/1999/xlink" x="0px" y="0px"
	 width="5012px" height="900px" viewBox="0 0 5012 900" enable-background="new 0 0 5012 900" xml:space="preserve">
<path fill-rule="evenodd" clip-rule="evenodd" fill="#FE0000" d="M563.585,60.688c55.289,0,109.711,0,165.829,0
	c-4.43,3.787-7.69,6.429-10.788,9.25c-10.323,9.401-14.495,20.576-12.661,34.904c7.06,55.17,13.516,110.418,20.06,165.653
	c5.368,45.314,10.216,90.692,15.931,135.962c3.071,24.322,12.549,46.165,29.239,64.533c1.711,1.883,3.324,3.855,5.201,6.041
	c-7.875,2.055-168.285,2.548-180.154,0.707c0.289-0.916,0.309-2.038,0.879-2.628c14.796-15.322,19.147-33.916,16.707-54.421
	c-7.599-63.831-15.365-127.641-23.066-191.459c-0.753-6.238-1.502-12.478-3.335-18.916c-16.814,45.313-31.78,91.101-47.208,136.725
	c-15.45,45.689-30.685,91.452-46.246,137.875c-3.14-0.921-5.646-1.465-8.008-2.38c-14.595-5.651-29.393-10.856-43.681-17.206
	c-28.017-12.451-48.014-32.972-59.615-61.55c-25.551-62.943-51.186-125.854-76.847-188.751c-1.062-2.602-2.739-4.952-4.13-7.419
	c-0.781,0.075-1.561,0.151-2.341,0.227c-0.747,3.345-1.798,6.653-2.193,10.039c-3.083,26.469-6.079,52.947-9.029,79.431
	c-4.278,38.4-8.467,76.811-12.75,115.211c-3.429,30.746,1.749,44.295,24.681,64.118c-0.083,0.322-0.106,0.682-0.27,0.957
	c-0.146,0.248-0.431,0.549-0.682,0.577c-1.969,0.225-3.945,0.551-5.918,0.548c-39.986-0.07-79.971-0.177-119.957-0.331
	c-0.477-0.002-0.952-0.726-1.428-1.114c0.127-0.596,0.047-1.424,0.414-1.752c19.608-17.544,26.651-40.604,29.795-65.748
	c8.346-66.756,17.13-133.456,25.695-200.184c3.646-28.41,7.214-56.83,10.758-85.252c2.923-23.444-4.153-43.368-21.317-59.642
	c-0.955-0.905-2.26-1.441-4.09-2.576c8.466-2.384,142.085-3.109,159.563-1.173c35.06,80.274,70.332,161.034,105.604,241.795
	c0.684,0.021,1.367,0.04,2.051,0.06C508.054,222.073,535.83,141.349,563.585,60.688z"/>
<path fill-rule="evenodd" clip-rule="evenodd" fill="#FE0000" d="M2089.57,287.816c-43.366,0-85.259,0-128.152,0
	c-0.346,2.953-0.945,5.771-0.966,8.594c-0.3,40.659-0.832,81.32-0.636,121.979c0.103,21.172,7.533,39.747,23.381,54.421
	c1.219,1.129,2.579,2.104,5.196,4.222c-3.586,0.803-5.578,1.636-7.571,1.639c-56.324,0.072-112.649,0.066-168.974,0.035
	c-1.901-0.001-3.802-0.401-7.071-0.77c2.66-3.008,4.484-5.162,6.405-7.228c13.733-14.769,20.978-31.873,20.901-52.39
	c-0.368-99.65-0.338-199.303-0.673-298.953c-0.027-8.249-1.107-16.623-2.799-24.708c-2.383-11.389-8.669-20.808-17.304-28.612
	c-1.638-1.479-3.294-2.938-6.075-5.415c61.651,0,121.721,0,183.318,0c-2.699,2.51-4.503,4.221-6.341,5.892
	c-14.617,13.291-22.078,29.986-22.297,49.564c-0.369,32.99-0.188,65.986-0.198,98.98c-0.001,2.604,0.313,5.207,0.538,8.685
	c42.847,0,85.31,0,128.748,0c0.172-3.221,0.49-6.456,0.494-9.693c0.033-29.328,0.115-58.658-0.065-87.985
	c-0.045-7.313-0.486-14.696-1.611-21.913c-2.622-16.822-8.351-32.186-24.445-43.443c61.72,0,121.753,0,183.066,0
	c-1.652,1.7-2.592,2.859-3.716,3.795c-15.694,13.05-22.713,30.196-22.734,50.162c-0.109,101.983,0.062,203.968-0.038,305.952
	c-0.021,21.604,7.177,39.71,23.755,53.844c0.734,0.626,1.293,1.458,1.886,2.142c-0.103,0.443-0.105,0.815-0.274,1.079
	c-0.156,0.244-0.481,0.505-0.752,0.529c-2.307,0.203-4.617,0.503-6.927,0.5c-57.319-0.06-114.64-0.149-171.96-0.287
	c-0.481-0.001-0.962-0.724-2.044-1.592c1.332-1.388,2.575-2.776,3.915-4.064c15.561-14.955,22.532-33.521,22.516-54.787
	c-0.029-39.326-0.318-78.652-0.494-117.979C2089.555,296.113,2089.57,292.217,2089.57,287.816z"/>
<path fill-rule="evenodd" clip-rule="evenodd" fill="#FE0000" d="M4422.504,60.113c2.982,0,5.965,0,8.947,0
	c73.969,0.002,147.938-0.047,221.906,0.031c25.753,0.026,50.188,5.728,72.935,18.026c12.444,6.729,23.167,15.609,32.419,26.301
	c31.732,36.669,30.158,79.219,7.724,115.628c-13.325,21.625-32.937,36.356-55.435,47.499c-3.239,1.604-6.508,3.145-10.414,5.029
	c2.044,3.334,3.664,6.159,5.455,8.871c25.699,38.913,51.463,77.785,77.125,116.722c18.048,27.384,37.768,53.283,63.998,73.537
	c0.479,0.369,0.69,1.085,1.43,2.304c-1.52,0.516-2.863,1.314-4.245,1.391c-36.256,2.003-72.495,4.668-108.78,5.659
	c-35.207,0.963-60.508-15.861-78.271-46.128c-25.615-43.647-52.257-86.693-78.476-129.987c-0.332-0.55-0.844-0.991-2.145-2.488
	c-0.579,2.935-1.318,4.937-1.32,6.939c-0.029,34.651-0.153,69.305,0.203,103.954c0.088,8.6,1.213,17.298,2.891,25.747
	c2.963,14.929,9.655,28.052,23.512,38.934c-61.938,0-121.678,0-181.441,0c0.068-0.828-0.122-1.735,0.201-1.989
	c19.065-14.928,24.752-35.597,24.758-58.482c0.008-31.985-0.406-63.972-0.523-95.958c-0.248-68.304-0.284-136.609-0.785-204.911
	c-0.067-9.206-1.637-18.553-3.728-27.552c-2.618-11.27-9.403-20.307-19.013-27.222C4421.789,61.35,4422.146,60.731,4422.504,60.113z
	 M4576.371,120.475c-1.902,18.709-1.393,137.098,0.549,143.981c36.669-1.96,77.213-34.278,76.134-81.488
	C4652.143,143.063,4615.725,113.397,4576.371,120.475z"/>
<path fill-rule="evenodd" clip-rule="evenodd" fill="#FE0000" d="M2562.479,60.614c59.597,0,119.004,0,178.449,0
	c-0.161,0.732-0.086,1.582-0.446,1.855c-16.963,12.851-23.865,30.63-25.006,51.17c-0.295,5.315-0.145,10.657-0.124,15.987
	c0.364,96.296,0.791,192.592,1.075,288.889c0.066,22.439,6.56,41.942,24.174,56.828c0.442,0.373,0.598,1.086,0.887,1.642
	c-6.776,2.137-137.707,2.881-153.035,0.71c0-15.625,0-31.462,0-49.371c-3.254,2.723-5.072,3.861-6.407,5.416
	c-28.098,32.725-64.601,48.381-106.762,51.775c-23.69,1.907-47.233,0.609-70.089-7.199c-47.814-16.335-76.66-56.109-76.849-106.632
	c-0.312-83.302-0.515-166.603-0.845-249.903c-0.025-6.314-0.338-12.672-1.141-18.929c-1.995-15.56-8.837-28.475-21.774-37.813
	c-1.487-1.072-2.894-2.257-5.708-4.464c61.679,0,121.5,0,181.345,0c0.048,0.39,0.353,1.281,0.146,1.422
	c-19.578,13.346-26.008,32.789-25.912,55.356c0.279,65.642,0.502,131.282,0.758,196.924c0.049,12.328,0.085,24.656,0.242,36.983
	c0.16,12.562,3.75,24.252,9.175,35.485c9.474,19.615,26.331,27.476,46.819,28.923c14.848,1.05,29.238-1.975,42.869-7.838
	c10.629-4.572,17.249-13.342,22.134-23.499c7.943-16.517,10.688-34.243,11.673-52.296c0.436-7.975,0.197-15.989,0.185-23.985
	c-0.095-62.643-0.22-125.286-0.309-187.929c-0.021-14.552-2.02-28.748-10.108-41.131
	C2573.646,72.487,2567.889,66.969,2562.479,60.614z"/>
<path fill-rule="evenodd" clip-rule="evenodd" fill="#FE0000" d="M4189.795,410.057c5.496,1.479,11.44,3.626,17.572,4.642
	c35.468,5.878,71.019,6.558,106.314-0.842c19.411-4.069,37.922-10.633,50.814-27.37c1.152-1.494,3.988-2.331,6.063-2.37
	c11.643-0.224,23.293-0.107,36.094-0.107c-1.238,2.718-1.839,4.799-3.008,6.487c-18.971,27.395-38.139,54.652-56.92,82.176
	c-3.293,4.824-7.057,6.167-12.475,6.141c-31.662-0.152-63.326-0.071-94.988-0.071c-65.325,0-130.65,0-195.976-0.001
	c-3.603,0-7.205,0-13.126,0c3.567-3.174,5.334-4.874,7.23-6.413c12.894-10.461,19.543-24.19,21.01-40.52
	c0.445-4.965,0.286-9.989,0.301-14.986c0.277-96.654,0.547-193.309,0.782-289.963c0.012-4.993-0.148-9.997-0.479-14.979
	c-1.364-20.521-8.135-38.313-25.978-51.767c3.449,0,6.897,0,10.347,0c72.324-0.001,144.65,0.112,216.973-0.094
	c15.266-0.043,30.526-1.254,47.229-1.989c-0.01,27.64-0.267,56.045-1.146,85.531c-2.019-1.029-3.285-1.336-4.068-2.125
	c-12.648-12.736-28.58-18.553-45.863-19.618c-20.602-1.27-41.305-0.915-61.965-1.16c-1.893-0.022-3.795,0.712-5.591,1.074
	c0,34.624,0,68.794,0,104.353c32.01-1.329,63.177,2.675,94.617-2.645c0,27.222,0,54.472,0,83.3c-2.481-2.35-4.061-3.73-5.511-5.236
	c-8.076-8.388-18.523-12.489-29.559-12.998c-19.571-0.902-39.213-0.253-58.757-0.253
	C4187.621,295.667,4187.536,397.627,4189.795,410.057z"/>
<path fill-rule="evenodd" clip-rule="evenodd" fill="#FE0000" d="M3225.908,60.617c-20.102,15.404-26.828,34.07-26.747,56.53
	c0.334,92.64,0.14,185.28,0.14,277.921c0,3.967,0,7.935,0,12.817c6.674,2.078,12.826,4.548,19.215,5.892
	c32.332,6.801,64.926,6.498,97.423,1.81c16.636-2.399,31.785-9.651,46.192-18.256c2.826-1.688,5.675-3.339,10.385-6.107
	c-7.994,30.2-16.788,58.213-25.193,86.863c-101.909,0-203.373,0-306.492,0c2.572-2.438,4.073-3.961,5.678-5.365
	c7.487-6.551,12.178-14.939,15.558-24.094c4.78-12.944,6.679-26.349,6.701-40.172c0.147-89.642,0.59-179.282,0.603-268.923
	c0.002-13.25-0.884-26.637-2.934-39.713c-2.342-14.942-9.82-27.484-22.545-36.405c-0.694-0.487-1.098-1.392-2.164-2.798
	C3102.863,60.617,3163.224,60.617,3225.908,60.617z"/>
<path fill-rule="evenodd" clip-rule="evenodd" fill="#FE0000" d="M3750.119,390.68c-9.008,30.564-17.343,58.849-25.779,87.474
	c-101.922,0-203.114,0-304.703,0c0.299-1.136,0.236-2.344,0.782-2.767c12.257-9.488,18.563-22.613,21.706-37.21
	c2.09-9.702,3.671-19.73,3.713-29.62c0.401-94.309,0.437-188.618,0.522-282.928c0.005-5.321-0.065-10.7-0.8-15.955
	c-2.713-19.417-9.486-36.711-28.516-48.902c62.563,0,123.213,0,185.076,0c-1.432,1.422-2.187,2.328-3.091,3.048
	c-16.038,12.769-22.965,29.821-22.989,49.871c-0.088,73.647-0.036,147.296-0.036,220.944c0,20.661,0.001,41.322,0.001,61.984
	c0,3.309-0.001,6.618-0.001,11.042c6.399,2.061,12.499,4.614,18.854,5.971c32.65,6.966,65.571,6.7,98.4,1.886
	c16.631-2.438,31.768-9.715,46.143-18.375C3742.227,395.441,3745.049,393.737,3750.119,390.68z"/>
<path fill-rule="evenodd" clip-rule="evenodd" fill="#FE0000" d="M1613.462,60.664c-14.158,9.931-21.771,22.105-24.712,36.955
	c-1.352,6.82-2.163,13.866-2.184,20.813c-0.287,93.314-0.393,186.628-0.541,279.942c-0.005,2.97-0.001,5.938-0.001,10.073
	c60.065,15.782,118.094,15.894,175.562-16.464c-9.081,29.889-17.544,57.739-26.156,86.083c-100.888,0-201.313,0-302.444,0
	c0.754-1.48,0.952-2.524,1.581-3.008c15.282-11.73,21.271-28.004,21.347-46.421c0.429-103.978,0.545-207.956,0.762-311.935
	c0.032-15.34-2.983-29.882-12.319-42.415c-3.488-4.684-7.912-8.671-12.512-13.624C1492.02,60.664,1551.483,60.664,1613.462,60.664z"
	/>
<path fill-rule="evenodd" clip-rule="evenodd" fill="#FE0000" d="M3797.805,478.921c20.525-14.32,25.49-34.385,26.063-56.016
	c0.572-21.638,0.2-43.301,0.224-64.952c0.085-77.946,0.179-155.893,0.205-233.839c0.002-5.649-0.088-11.356-0.855-16.938
	c-2.486-18.091-9.681-33.726-26.79-45.641c62.109,0,122.148,0,183.375,0c-1.273,1.478-1.873,2.473-2.732,3.125
	c-15.464,11.738-21.726,28.103-23.47,46.707c-0.279,2.975-0.154,5.991-0.154,8.988c-0.006,99.598-0.086,199.196,0.136,298.794
	c0.02,8.89,1.232,17.954,3.252,26.621c3.122,13.396,10.861,24.173,22.483,32.317C3971.9,480.163,3816.951,480.88,3797.805,478.921z"
	/>
<path fill-rule="evenodd" clip-rule="evenodd" fill="#FE0000" d="M2803.385,60.617c61.827,0,121.855,0,181.977,0
	c-0.229,0.951-0.169,1.805-0.541,2.087c-18.37,13.902-24.747,33.263-24.773,55.271c-0.097,83.659-0.041,167.318-0.042,250.978
	c0,15.999,0.085,31.998-0.018,47.996c-0.15,23.295,5.229,44.282,24.448,59.281c-0.221,0.753-0.253,1.113-0.428,1.381
	c-0.158,0.243-0.471,0.55-0.715,0.551c-57.303,0.204-114.605,0.389-171.908,0.539c-1.574,0.004-3.149-0.363-4.775-0.563
	c0.236-1.034,0.167-1.884,0.529-2.155c16.062-11.986,21.228-29.193,22.993-47.996c0.311-3.308,0.194-6.66,0.199-9.992
	c0.126-98.324,0.319-196.648,0.231-294.973c-0.008-9.248-0.979-18.676-2.959-27.699
	C2824.526,81.304,2816.545,69.978,2803.385,60.617z"/>
<path fill-rule="evenodd" clip-rule="evenodd" d="M2250.241,597.97c15.155,0,29.339,0,44.254,0
	c19.219,58.608,38.383,117.05,57.547,175.491c0.538,0.1,1.077,0.199,1.615,0.3c19.66-58.275,39.321-116.55,59.222-175.539
	c13.049,0,26.159,0,39.985,0c0,71.899,0,143.387,0,216.018c-9.232,1.902-18.61,1.067-29.154,0.551c0-55.089,0-109.452,0-163.816
	c-0.842-0.157-1.683-0.314-2.524-0.472c-18.58,54.54-37.16,109.079-55.91,164.121c-9.122,0-17.943,0-27.77,0
	c-18.541-55.591-37.134-111.337-55.727-167.084c-0.57,0.064-1.142,0.129-1.713,0.193c0,55.284,0,110.569,0,166.702
	c-10.508,0-19.922,0-29.825,0C2250.241,742.27,2250.241,670.748,2250.241,597.97z"/>
<path fill-rule="evenodd" clip-rule="evenodd" d="M1382.115,184.834c-44.277,43.486-86.998,85.444-130.527,128.196
	c-11.076-8.876-21.868-17.523-32.15-25.763c-17.62,16.275-34.838,32.178-52.592,48.577c-13.669-41.47-27.478-83.362-41.668-126.417
	c-10.97,3.789-21.448,7.408-32.893,11.36c0-12.438,0-23.849,0-35.954C1188.157,184.834,1283.901,184.834,1382.115,184.834z"/>
<path fill-rule="evenodd" clip-rule="evenodd" d="M1606.979,824.892c9.312,1.23,18.04,2.383,26.237,3.465
	c0.668,0.896,0.945,1.134,1.055,1.434c6.313,17.291,13.078,22.267,31.634,22.794c4.64,0.132,9.358-0.067,13.938-0.774
	c14.388-2.219,25.145-12.222,27.649-26.51c1.419-8.09,1.386-16.435,2.141-26.442c-3.313,2.182-5.161,3.262-6.861,4.538
	c-25.905,19.437-63.152,14.585-83.095-10.948c-8.555-10.952-14.055-23.361-16.418-37.056c-3.886-22.514-2.236-44.504,7.48-65.425
	c12.743-27.435,39.03-41.091,68.818-36.11c10.051,1.681,15.734,4.632,31.421,16.534c0.49-4.524,0.925-8.533,1.347-12.432
	c7.296-2.192,13.966-2.396,25.177-0.723c0.334,1.632,1.049,3.491,1.045,5.35c-0.094,49.281-0.179,98.563-0.516,147.842
	c-0.045,6.612-1.068,13.28-2.261,19.809c-3.562,19.498-14.733,33.523-32.776,41.165c-22.42,9.496-45.445,9.499-68.104,0.5
	c-18.264-7.254-27.445-21.345-28.492-40.838C1606.314,829.5,1606.68,827.912,1606.979,824.892z M1630.535,734.652
	c1.248,8.414,1.805,16.771,3.811,24.764c4.646,18.52,18.765,30.091,36.001,30.442c17.67,0.361,32.432-11.067,37.67-29.707
	c4.489-15.975,4.669-32.19,0.801-48.312c-1.148-4.785-2.896-9.648-5.427-13.836c-7.752-12.825-18.972-20.562-34.451-19.738
	c-15.042,0.8-25.149,9.37-31.679,22.47c-1.468,2.944-2.765,6.131-3.313,9.347C1632.559,718.235,1631.641,726.469,1630.535,734.652z"
	/>
<path fill-rule="evenodd" clip-rule="evenodd" d="M3153.117,824.987c9.236,1.173,17.715,2.25,26.411,3.354
	c0.732,1.687,1.673,3.111,1.971,4.659c2.037,10.605,9.387,15.859,19.018,18.178c9.821,2.365,19.823,2.221,29.663-0.378
	c10.416-2.751,17.493-9.438,21.426-19.292c4.012-10.055,3.12-20.627,3.684-32.861c-3.355,2.445-5.141,3.722-6.899,5.033
	c-25.175,18.768-61.81,14.322-81.758-10.05c-9.257-11.311-15.063-24.323-17.47-38.705c-3.768-22.513-2.075-44.506,7.801-65.382
	c12.778-27.015,38.587-40.441,68.082-35.768c9.449,1.497,17.737,5.471,25.144,11.422c2,1.606,3.979,3.239,6.938,5.649
	c0.507-5.246,0.901-9.328,1.354-14.016c8.477,0,16.6,0,25.141,0c0.384,2.429,0.949,4.329,0.944,6.228
	c-0.129,49.614-0.228,99.229-0.604,148.842c-0.05,6.604-1.138,13.284-2.47,19.781c-3.818,18.621-14.764,32.091-32.02,39.508
	c-22.725,9.768-46.11,9.878-69.012,0.505C3160.765,863.635,3151.35,847.429,3153.117,824.987z M3176.474,734.511
	c1.373,8.582,2,17.965,4.478,26.83c4.985,17.839,19.406,28.618,36.421,28.522c16.896-0.095,31.285-11.15,36.38-28.782
	c4.891-16.927,5.135-34.111,0.522-51.186c-1.114-4.125-2.653-8.311-4.874-11.931c-7.839-12.776-19.011-20.533-34.489-19.697
	c-15.041,0.813-25.142,9.39-31.663,22.493c-1.466,2.946-2.751,6.132-3.313,9.348
	C3178.566,717.931,3177.671,725.835,3176.474,734.511z"/>
<path fill-rule="evenodd" clip-rule="evenodd" d="M1906.494,728.11c0,29.449,0,57.323,0,86.105
	c-10.42,1.806-20.104,1.25-30.359,0.453c0-72.284,0-143.757,0-215.94c2.035-0.406,4.199-1.218,6.362-1.213
	c30.955,0.074,61.913,0.125,92.865,0.525c6.267,0.081,12.629,1.089,18.753,2.507c28.081,6.503,45.819,30.447,44.901,61.42
	c-0.253,8.505-1.884,17.284-4.638,25.338c-6.59,19.27-19.994,32.108-40.113,36.636c-9.674,2.177-19.67,3.52-29.575,3.936
	c-15.619,0.655-31.284,0.212-46.929,0.232C1914.483,728.113,1911.205,728.11,1906.494,728.11z M1906.992,698.384
	c12.492,1.797,60.572,1.422,70.628-0.643c3.874-0.795,7.704-2.077,11.359-3.604c7.079-2.954,11.919-8.304,14.978-15.276
	c11.242-25.622-3.353-50.935-31.051-52.238c-21.218-0.999-42.521-0.186-63.787-0.124c-0.542,0.001-1.081,0.628-2.127,1.276
	C1906.992,650.926,1906.992,674.39,1906.992,698.384z"/>
<path fill-rule="evenodd" clip-rule="evenodd" d="M3422.592,598.123c2.129-0.262,3.741-0.637,5.352-0.631
	c30.955,0.111,61.913,0.121,92.865,0.532c6.594,0.088,13.298,1.129,19.73,2.658c27.718,6.59,45.2,30.021,44.432,60.731
	c-0.236,9.456-2.191,19.286-5.475,28.163c-6.641,17.962-19.783,29.947-38.691,34.231c-9.992,2.264-20.324,3.624-30.56,4.069
	c-15.616,0.68-31.283,0.188-46.929,0.253c-3.235,0.014-6.469,0.288-10.735,0.491c0,28.784,0,56.942,0,85.874
	c-10.507,0-19.958,0-29.328,0C3421.238,807.079,3420.601,612.572,3422.592,598.123z M3452.799,698.912
	c4.191,0.208,7.431,0.495,10.67,0.508c13.3,0.053,26.603,0.188,39.898-0.051c6.628-0.118,13.308-0.568,19.849-1.602
	c9.419-1.487,17.845-5.137,23.644-13.336c16.467-23.287,2.593-54.732-25.553-57.788c-2.64-0.286-5.308-0.437-7.963-0.445
	c-17.954-0.058-35.908-0.099-53.862-0.032c-2.164,0.009-4.324,0.698-6.683,1.105C3452.799,651.129,3452.799,674.35,3452.799,698.912
	z"/>
<path fill-rule="evenodd" clip-rule="evenodd" d="M3869.894,803.112c0,24.841,0,47.399,0,70.691c-9.52,0-18.291,0-27.003,0
	c-2.24-8.486-2.296-207.934-0.021-216.858c7.983,0,16.085,0,24.489,0c0.43,4.847,0.796,8.969,1.25,14.076
	c1.858-1.371,3.041-1.944,3.82-2.861c19.396-22.818,67.939-21.647,89.584,11.718c6.826,10.522,10.965,22.077,12.856,34.371
	c3.405,22.139,2.199,43.886-7.08,64.641c-11.413,25.525-35.019,40.493-61.708,39.586c-9.979-0.339-18.937-3.379-27.087-9.021
	C3876.613,807.807,3874.241,806.144,3869.894,803.112z M3947.542,734.514c-0.88-12.833-1.852-25.439-7.935-36.987
	c-13.365-25.375-42.052-27.964-59.543-5.355c-2.224,2.874-4.389,5.998-5.687,9.352c-8.892,22.977-9.442,46.286-0.389,69.192
	c5.396,13.653,16.08,22.192,31.195,22.997c15.634,0.832,26.53-7.426,33.924-20.536c2.255-3.999,3.997-8.523,4.858-13.021
	C3945.588,751.689,3946.396,743.069,3947.542,734.514z"/>
<path fill-rule="evenodd" clip-rule="evenodd" d="M2947.756,815.212c-8.187,0-16.393,0.302-24.545-0.224
	c-1.916-0.123-4.299-2.714-5.326-4.746c-1.757-3.476-2.612-7.406-4.084-11.867c-3.748,2.594-6.913,4.858-10.152,7.012
	c-20.064,13.336-41.998,16.489-64.955,10.414c-18.473-4.889-29.788-17.515-32.266-36.568c-2.486-19.121,4.458-34.63,20.862-45.381
	c13.013-8.527,28.088-9.634,42.887-11.892c13.745-2.097,27.407-4.731,41.517-7.202c0-5.286,0.29-9.25-0.055-13.157
	c-0.955-10.81-6.939-17.775-17.191-20.935c-11.762-3.624-23.656-3.523-35.45-0.158c-7.083,2.021-12.288,6.572-15.402,13.272
	c-1.95,4.197-3.585,8.541-5.826,13.936c-8.745-1.278-17.697-2.587-27.271-3.986c3.346-20.133,11.816-35.278,29.953-43.066
	c23.213-9.968,47.264-10.525,71.283-3.283c17.869,5.388,27.325,18.127,28.721,36.722c0.473,6.302,0.803,12.627,0.858,18.944
	c0.153,17.312-0.079,34.628,0.23,51.936c0.291,16.244-1.037,32.78,7.772,47.853C2948.796,813.627,2948.275,814.419,2947.756,815.212
	z M2912.582,739.251c-16.647,3.153-31.322,5.892-45.978,8.732c-4.562,0.884-9.178,1.71-13.579,3.143
	c-11.01,3.583-16.937,12.011-16.149,22.341c0.778,10.216,8.052,18.351,18.948,20.293c11.371,2.026,22.588,1.199,33.113-4.071
	c10.29-5.152,18.096-12.879,20.628-24.279C2911.412,757.096,2911.591,748.413,2912.582,739.251z"/>
<path fill-rule="evenodd" clip-rule="evenodd" d="M1121.758,713.391c0-3.911,0.222-7.545-0.042-11.143
	c-0.825-11.256-6.91-18.497-17.594-21.7c-11.435-3.428-23.006-3.34-34.507-0.239c-7.902,2.131-13.364,7.264-16.658,14.658
	c-1.745,3.919-3.174,7.979-5.052,12.755c-8.836-1.276-17.56-2.536-27.504-3.973c3.36-18.782,10.783-33.413,27.656-41.976
	c15.304-7.766,31.803-9.896,48.558-8.613c9.825,0.752,19.854,2.629,29.131,5.883c14.845,5.209,22.62,16.938,24.41,32.432
	c0.763,6.599,1.057,13.277,1.141,19.925c0.18,14.314-0.178,28.639,0.167,42.946c0.478,19.82-1.938,40.01,7.983,59.846
	c-9.93,1.903-18.801,1.161-27.568,0.632c-1.51-0.091-3.289-2.946-4.154-4.879c-1.598-3.564-2.61-7.392-4.081-11.742
	c-11.487,8.778-22.986,16.03-36.763,18.622c-12.583,2.367-25.176,2.707-37.586-0.771c-18.429-5.164-30.075-17.183-32.781-36.182
	c-2.774-19.481,4.229-35.307,21.074-46.21c12.757-8.257,27.479-9.428,41.948-11.637c11.498-1.756,22.942-3.89,34.38-6.018
	C1116.451,715.535,1118.86,714.379,1121.758,713.391z M1121.335,739.353c-13.555,2.672-26.857,5.284-40.155,7.919
	c-5.865,1.162-11.848,1.944-17.556,3.646c-11.169,3.327-17.274,11.634-16.81,21.914c0.478,10.561,8.03,19.07,19.36,21.001
	c11.03,1.879,21.916,1.092,32.187-3.865c10.028-4.84,17.596-12.187,20.84-22.975C1121.889,758.054,1122.768,748.78,1121.335,739.353
	z"/>
<path fill-rule="evenodd" clip-rule="evenodd" d="M2211.69,815.218c-10.624,0-18.854,0.305-27.03-0.227
	c-1.917-0.124-4.302-2.753-5.324-4.802c-1.748-3.505-2.59-7.462-3.991-11.782c-3.921,2.677-7.423,5.157-11.015,7.503
	c-19.541,12.765-40.854,15.68-63.168,10.141c-18.109-4.495-29.859-16.279-32.866-34.879c-3.196-19.778,3.312-36.068,20.567-47.361
	c12.749-8.342,27.455-9.509,41.913-11.755c11.499-1.786,22.95-3.886,34.397-5.993c2.572-0.473,5.032-1.554,7.344-2.291
	c3.322-20.577-3.806-31.398-23.479-34.582c-7.104-1.149-14.589-0.725-21.822-0.103c-12.622,1.083-20.564,8.478-24.693,20.233
	c-0.879,2.501-1.762,5-2.985,8.47c-9.075-1.366-18.062-2.719-27.646-4.162c3.568-20.007,11.973-35.199,30.156-43.026
	c22.912-9.861,46.724-10.465,70.37-3.491c19.463,5.74,28.769,18.757,29.69,39.128c0.527,11.637,0.405,23.304,0.508,34.958
	c0.096,10.989-0.146,21.987,0.204,32.968C2203.35,780.729,2202.347,797.559,2211.69,815.218z M2174.236,739.256
	c-16.946,3.194-31.592,5.911-46.217,8.736c-4.561,0.881-9.167,1.734-13.572,3.158c-10.508,3.394-16.484,11.486-16.215,21.34
	c0.277,10.139,7.346,18.918,18.082,21.048c13.825,2.741,27.189,1.192,39.24-6.846c7.434-4.958,13.307-11.491,15.182-20.289
	C2172.577,757.765,2173.061,748.836,2174.236,739.256z"/>
<path fill-rule="evenodd" clip-rule="evenodd" d="M4247.049,735.549c1.003-8.63,1.46-16.978,3.008-25.117
	c7.008-36.859,37.498-60.094,74.993-57.491c36.856,2.559,62.138,26.591,67.224,63.429c2.359,17.081,1.6,33.957-2.457,50.602
	c-6.781,27.823-30.25,48.005-58.834,50.979c-11.684,1.216-23.373,0.993-34.629-2.777c-25.75-8.623-40.559-27.068-46.086-53.132
	C4248.416,753.301,4248.063,744.245,4247.049,735.549z M4276.355,735.606c0.313,0.088,0.624,0.176,0.936,0.264
	c0.492,5.952,0.663,11.955,1.581,17.841c0.71,4.559,1.976,9.12,3.654,13.422c6.511,16.688,21.267,26.838,38.36,26.732
	c16.707-0.103,31.244-9.904,37.369-26.55c7.467-20.288,7.85-41.073,0.612-61.513c-6.173-17.434-21.372-27.822-38.707-27.662
	c-17.438,0.16-32.407,10.688-38.071,28.354C4279.09,715.85,4278.199,725.881,4276.355,735.606z"/>
<path fill-rule="evenodd" clip-rule="evenodd" d="M2656.302,847.369c5.617,0.784,9.511,1.472,13.435,1.85
	c12.854,1.236,20.936-3.593,26.102-15.444c0.133-0.306,0.214-0.632,0.344-0.938c7.479-17.781,7.467-17.776,0.762-35.858
	c-15.963-43.052-31.918-86.107-47.855-129.169c-1.134-3.061-2.097-6.185-3.629-10.732c10.606-1.596,20.325-0.661,30.766-0.794
	c13.744,39.246,27.359,78.123,41.332,118.021c14.176-39.704,28.146-78.836,41.876-117.295c10.079,0,18.874,0,28.592,0
	c-0.917,3.454-1.38,5.983-2.251,8.363c-19.909,54.362-39.733,108.756-59.92,163.015c-3.812,10.245-8.252,20.45-13.884,29.78
	c-10.325,17.104-27.002,23.22-45.432,18.628c-5.274-1.314-8.153-3.516-8.362-9.234
	C2657.949,861.346,2657.058,855.157,2656.302,847.369z"/>
<path fill-rule="evenodd" clip-rule="evenodd" d="M1253.088,774.397c14.161-39.775,27.98-78.591,41.874-117.615
	c9.744-0.781,18.784-1.097,28.762,0.148c-1.087,3.745-1.659,6.261-2.538,8.662c-19.795,54.071-39.436,108.201-59.597,162.135
	c-4.283,11.459-9.437,22.881-16.059,33.109c-10.1,15.602-27.136,20.584-44.773,15.615c-4.575-1.289-6.661-3.348-6.881-8.153
	c-0.297-6.521-1.255-13.014-2.063-20.811c4.835,0.63,8.33,1.096,11.829,1.538c14.357,1.813,22.653-3.046,28.235-16.532
	c7.239-17.485,7.228-17.481,0.762-34.908c-15.975-43.064-31.948-86.129-47.889-129.205c-1.232-3.332-2.201-6.761-3.521-10.854
	c10.437-2.499,19.948-0.906,30.482-1.232C1225.442,695.489,1239.158,734.64,1253.088,774.397z"/>
<path fill-rule="evenodd" clip-rule="evenodd" d="M1566.407,814.479c-9.839,0-18.65,0-28.382,0c0-4.414,0.001-8.018,0-11.622
	c-0.004-28.305,0.088-56.609-0.089-84.913c-0.037-5.951-0.68-11.963-1.71-17.83c-1.951-11.114-9.285-17.62-19.886-19.87
	c-18.452-3.916-41.217,4.166-45.049,28.347c-1.141,7.195-1.695,14.548-1.762,21.835c-0.217,23.974-0.087,47.951-0.091,71.927
	c0,3.629,0,7.258,0,11.92c-9.716,1.771-18.771,1.11-28.593,0.419c0-52.715,0-104.766,0-156.738c7.56-2.254,15.386-2.401,25.349-0.36
	c0.24,4.538,0.492,9.318,0.812,15.364c2.293-1.824,3.629-2.653,4.677-3.756c18.038-18.973,48.704-19.815,68.766-10.75
	c15.424,6.969,23.035,19.523,25.523,35.662c0.708,4.594,1.072,9.285,1.091,13.935c0.137,33.631,0.154,67.263,0.16,100.895
	C1567.225,810.539,1566.767,812.135,1566.407,814.479z"/>
<path fill-rule="evenodd" clip-rule="evenodd" d="M3112.405,814.473c-9.824,0-18.636,0-28.38,0c0-4.424,0.001-8.029,0-11.636
	c-0.004-28.305,0.086-56.61-0.092-84.914c-0.037-5.952-0.68-11.964-1.711-17.831c-1.955-11.12-9.309-17.598-19.905-19.853
	c-18.34-3.901-41.193,4.109-45.027,28.375c-1.137,7.196-1.694,14.548-1.76,21.836c-0.218,23.974-0.087,47.951-0.091,71.927
	c0,3.629,0,7.258,0,10.598c-7.662,2.846-17.914,3.129-28.604,0.882c0-51.894,0-103.945,0-156.507
	c8.331-1.933,16.411-1.411,25.225-0.331c0.33,5.127,0.639,9.908,1.025,15.898c2.221-1.78,3.551-2.618,4.602-3.723
	c17.988-18.898,48.592-19.854,68.771-10.741c15.426,6.966,23.025,19.534,25.515,35.67c0.708,4.595,1.071,9.286,1.091,13.936
	c0.136,33.631,0.152,67.264,0.158,100.896C3113.224,810.55,3112.764,812.145,3112.405,814.473z"/>
<path fill-rule="evenodd" clip-rule="evenodd" d="M760.418,598.131c0,9.216,0,18.021,0,27.776c-22.811,0-44.982,0-68.468,0
	c-0.427,32.063-0.146,63.21-0.196,94.352c-0.051,30.936-0.011,61.87-0.011,92.513c-7.631,3.203-21.641,3.451-31.507,0.508
	c0-61.79,0-123.9,0-187.117c-23.136,0-45.268,0-68.155,0c0-9.852,0-18.593,0-28.031
	C648.237,598.131,703.982,598.131,760.418,598.131z"/>
<path fill-rule="evenodd" clip-rule="evenodd" d="M4111.586,657.106c0.342,5.11,0.658,9.867,1.064,15.959
	c2.443-2.136,3.931-3.297,5.258-4.618c19.572-19.474,52.173-18.978,71.676-8.139c14.857,8.257,21.113,21.804,22.292,37.869
	c0.875,11.939,0.613,23.97,0.657,35.959c0.083,22.987,0.023,45.974,0.023,68.961c0,3.589,0,7.177,0,11.479
	c-9.939,0-18.744,0-28.865,0c0-4.097,0-7.641,0-11.185c-0.002-27.317,0.109-54.636-0.083-81.952
	c-0.049-6.964-0.604-13.995-1.729-20.864c-1.809-11.051-8.939-17.876-19.571-20.233c-17.759-3.938-42.224,2.575-46.084,30.722
	c-0.993,7.236-1.394,14.6-1.449,21.91c-0.18,23.318-0.069,46.639-0.07,69.959c-0.001,3.601-0.001,7.201-0.001,11.579
	c-9.86,0-18.652,0-28.179,0c0-52.499,0-104.588,0-157.262C4094.77,655.541,4102.842,655.827,4111.586,657.106z"/>
<path fill-rule="evenodd" clip-rule="evenodd" d="M779.758,656.729c10.063,0,18.568,0,28.164,0
	c0.249,3.821,0.667,7.328,0.675,10.836c0.059,25.638-0.058,51.275,0.094,76.913c0.047,7.979,0.387,15.992,1.232,23.922
	c1.503,14.091,10.854,22.886,24.893,24.08c21.837,1.857,38.46-11.326,41.105-32.961c0.887-7.252,1.258-14.603,1.311-21.912
	c0.163-22.974,0.063-45.948,0.065-68.923c0-3.611,0-7.224,0-10.549c8.12-2.4,16.81-2.619,27.239-0.947
	c2.051,6.98,2.85,139.52,0.941,156.202c-7.078,2.413-14.542,2.626-25.136,0.492c0-4.601,0-9.425,0-16.185
	c-3.438,2.733-5.43,4.163-7.249,5.786c-19.482,17.376-49.01,20.07-71.551,6.719c-14.346-8.499-19.537-22.085-21.255-37.55
	c-0.658-5.934-0.495-11.972-0.504-17.962c-0.047-28.968-0.024-57.935-0.025-86.902C779.757,664.5,779.758,661.212,779.758,656.729z"
	/>
<path fill-rule="evenodd" clip-rule="evenodd" d="M2502.355,598.019c10.132,0,19.33,0,29.852,0c0.242,3.809,0.692,7.62,0.695,11.433
	c0.047,54.593,0.032,109.187,0.033,163.78c0,3.929,0,7.856,0,12.765c34.504,0,67.978,0,101.089,0
	c2.706,7.723,2.985,13.727,1.494,27.959c-8.458,2.727-17.417,0.983-26.19,1.273c-8.979,0.297-17.974,0.066-26.962,0.066
	c-8.655,0-17.311,0-25.966,0c-8.987,0-17.976,0.021-26.963-0.006c-8.891-0.027-17.78-0.102-27.082-0.158
	C2502.355,742.271,2502.355,670.804,2502.355,598.019z"/>
<path fill-rule="evenodd" clip-rule="evenodd" d="M1112.688,72.067c55.508,0,108.44,0,160.328,0
	c-25.609,26.421-51.419,53.046-78.116,80.588C1167.917,126.206,1141.204,100.021,1112.688,72.067z"/>
<path fill-rule="evenodd" clip-rule="evenodd" d="M1060.411,72.087c-27.044,27.683-52.538,53.78-78.729,80.59
	c-27.617-26.686-54.699-52.854-83.404-80.59C953.175,72.087,1005.569,72.087,1060.411,72.087z"/>
<path fill-rule="evenodd" clip-rule="evenodd" d="M3722.764,814.448c-8.919,0-17.974,0-27.615,0c0-72.376,0-144.065,0-216.265
	c3.219-0.283,5.799-0.668,8.385-0.707c6.261-0.097,12.523-0.031,18.496-0.031C3724.185,605.504,3724.721,801.81,3722.764,814.448z"
	/>
<path fill-rule="evenodd" clip-rule="evenodd" d="M794.815,160.159c25.419-26.352,50.814-52.679,76.952-79.774
	c26.788,26.211,53.139,51.993,79.328,77.618c-0.321,0.844-0.398,1.181-0.571,1.459c-0.155,0.249-0.417,0.619-0.632,0.62
	c-50.952,0.188-101.904,0.352-152.856,0.478C795.828,160.563,794.619,160.121,794.815,160.159z"/>
<path fill-rule="evenodd" clip-rule="evenodd" d="M1007.308,159.688c27.488-27.13,53.606-52.909,78.516-77.494
	c26.672,26.09,52.675,51.524,78.63,76.914C1157.38,160.965,1026.16,161.7,1007.308,159.688z"/>
<path fill-rule="evenodd" clip-rule="evenodd" d="M1223.976,159.88c26.741-26.293,52.685-51.801,78.807-77.484
	c24.556,25.324,50.123,51.69,75.134,77.484C1328.198,159.88,1276.601,159.88,1223.976,159.88z"/>
<path fill-rule="evenodd" clip-rule="evenodd" d="M951.748,597.988c9.51,0,18.054,0,26.54,0c2.28,7.013,3.218,197.329,1.001,216.494
	c-8.872,1.379-17.905,0.966-27.541,0.256C951.748,742.252,951.748,670.736,951.748,597.988z"/>
<path fill-rule="evenodd" clip-rule="evenodd" d="M1089.986,273.101c15.422,51.244,30.844,102.487,46.435,154.289
	c-15.57,14.382-30.935,28.574-46.09,42.571c-0.837-0.226-1.183-0.257-1.457-0.412c-0.246-0.14-0.595-0.416-0.595-0.632
	c-0.025-65.271-0.024-130.544-0.024-195.815C1088.832,273.102,1089.409,273.102,1089.986,273.101z"/>
<path fill-rule="evenodd" clip-rule="evenodd" d="M1041.814,423.113c-19.783-19.094-39.599-38.219-59.854-57.769
	c19.48-32.047,38.882-63.963,58.283-95.879c0.523,0.168,1.048,0.337,1.571,0.505
	C1041.814,321.427,1041.814,372.884,1041.814,423.113z"/>
<path fill-rule="evenodd" clip-rule="evenodd" d="M3796.293,814.477c-8.912,0-17.976,0-27.569,0c0-52.67,0-104.524,0-156.275
	c7.253-2.525,17.657-2.777,27.385-0.76C3798.03,664.869,3798.328,803.911,3796.293,814.477z"/>
<path fill-rule="evenodd" clip-rule="evenodd" d="M4041.252,814.486c-9.034,0-17.844,0-26.625,0
	c-2.459-7.326-2.8-147.736-0.271-157.667c8.621,0,17.398,0,26.896,0C4041.252,709.527,4041.252,761.603,4041.252,814.486z"/>
<path fill-rule="evenodd" clip-rule="evenodd" d="M3622.547,656.859c9.408,0,18.159,0,27.65,0c0,52.654,0,104.676,0,157.567
	c-9.387,0-18.414,0-27.65,0C3622.547,761.633,3622.547,709.58,3622.547,656.859z"/>
<path fill-rule="evenodd" clip-rule="evenodd" d="M851.237,242.9c-19.785-19.094-39.24-37.869-60.233-58.129
	c41.366,0,80.356,0,119.323,0C907.835,190.633,870.818,227.203,851.237,242.9z"/>
<path fill-rule="evenodd" clip-rule="evenodd" d="M886.334,276.969c16.314-15.099,32.301-29.893,48.631-45.006
	c2.358,7.972,2.941,76.501,1.051,88.77C929.497,317.747,899.988,291.864,886.334,276.969z"/>
<path fill-rule="evenodd" clip-rule="evenodd" d="M982.585,184.441c16.222,0,31.446,0,46.702,0
	c-1.098,6.438-36.17,64.05-46.702,76.5C982.585,235.18,982.585,210.291,982.585,184.441z"/>
<path fill-rule="evenodd" clip-rule="evenodd" d="M3796.906,597.853c0,10.867,0,20.935,0,31.535
	c-9.288,2.235-18.313,0.888-28.022,0.84c0-10.953,0-21.018,0-31.667C3778.152,596.499,3787.177,597.538,3796.906,597.853z"/>
<path fill-rule="evenodd" clip-rule="evenodd" d="M4041.486,598.055c0,11.122,0,20.981,0,31.344
	c-9.195,2.078-18.015,1.07-27.786,0.704c-1.72-10.686-1.101-21.053-0.418-32.048
	C4022.889,598.055,4031.703,598.055,4041.486,598.055z"/>
<path fill-rule="evenodd" clip-rule="evenodd" d="M3650.063,629.917c-9.372,0-18.129,0-27.528,0c0-10.729,0-20.823,0-31.7
	c9.14,0,17.892,0,27.528,0C3650.063,608.462,3650.063,618.561,3650.063,629.917z"/>
<rect x="-353.066" y="-585.431" display="none" fill="#FE0000" width="263.947" height="173.965"/>
</svg>
