<?xml version="1.0" encoding="utf-8"?>
<!-- Generator: Adobe Illustrator 16.0.0, SVG Export Plug-In . SVG Version: 6.00 Build 0)  -->
<!DOCTYPE svg PUBLIC "-//W3C//DTD SVG 1.1//EN" "http://www.w3.org/Graphics/SVG/1.1/DTD/svg11.dtd">
<svg version="1.1" id="Layer_1" xmlns="http://www.w3.org/2000/svg" xmlns:xlink="http://www.w3.org/1999/xlink" x="0px" y="0px"
	 width="80px" height="30px" viewBox="16 42.5 80 30" enable-background="new 16 42.5 80 30" xml:space="preserve">
<path fill="#C6C6C6" d="M30.762,157.044c-4.328-1.667-5.602-5.275-5.941-9.942c-1.013-13.914-2.29-27.805-3.461-41.703
	c-0.49-5.808-1.018-11.61-1.441-17.423c-0.308-4.234,1.939-7.003,5.848-7.014c20.148-0.052,40.297-0.052,60.446,0
	c3.909,0.01,6.194,2.788,5.851,7.007c-0.946,11.615-1.996,23.221-2.977,34.832c-0.678,8.012-1.462,16.02-1.909,24.048
	c-0.265,4.747-1.506,8.483-5.951,10.195C64.404,157.044,47.583,157.044,30.762,157.044z M49.6,94.571c0,16.29,0,32.413,0,48.516
	c4.378,0,8.574,0,12.819,0c0-16.237,0-32.298,0-48.516C58.14,94.571,54.005,94.571,49.6,94.571z M43.399,143.154
	c0-4.396,0-8.572,0-12.75c0-11.182,0.023-22.363-0.051-33.544c-0.005-0.813-0.691-2.308-1.106-2.326
	c-3.908-0.18-7.825-0.106-11.956-0.106c1.087,16.443,2.152,32.54,3.224,48.727C36.842,143.154,39.926,143.154,43.399,143.154z
	 M68.766,94.562c0,16.312,0,32.423,0,48.537c3.319,0,6.458,0,9.721,0c1.071-16.228,2.131-32.298,3.2-48.537
	C77.293,94.562,73.162,94.562,68.766,94.562z"/>
<path fill="#C6C6C6" d="M69.885,43.501c3.153,1.429,4.48,4.063,4.599,7.698c0.065,2.021,0.529,4.027,0.845,6.256
	c2.698,0,5.258-0.003,7.817,0c7.896,0.01,11.763,4.67,11.008,13.473c-25.367,0-50.753,0-76.135,0
	c-1.441-7.541,2.876-13.385,9.962-13.467c2.863-0.034,5.727-0.006,8.722-0.006c0.317-2.232,0.792-4.239,0.85-6.26
	c0.102-3.648,1.453-6.261,4.595-7.695C51.394,43.501,60.64,43.501,69.885,43.501z M68.137,50.476c-8.249,0-16.17,0-24.264,0
	c-0.286,2.301-0.561,4.516-0.845,6.813c8.817,0,17.323,0,26.011,0C68.726,54.929,68.438,52.761,68.137,50.476z"/>
</svg>
