<?xml version="1.0" encoding="utf-8" ?>
<svg version="1.1" xmlns="http://www.w3.org/2000/svg" xmlns:xlink="http://www.w3.org/1999/xlink" x="0px" y="0px" width="200px"
     height="200px" viewBox="1052 675 200 200" enable-background="new 1052 675 200 200" xml:space="preserve"
     id="MLLogo-Diamond">
<g>
<path fill="#FFF" d="M1234.21,756.164c-12.49,12.346-24.727,24.439-37.253,36.821c-2.852-2.428-5.694-4.853-8.704-7.42
		        c-5.764,3.95-9.836,9.883-15.431,14.562c-3.65-12.051-7.234-23.896-10.866-35.891c-3.169,0.996-6.232,1.959-9.442,2.968
		        c0-3.687,0-7.231,0-11.04C1179.591,756.164,1206.616,756.164,1234.21,756.164z" />
<path fill="#FFF" d="M1176.102,750.376c-15.461,0-31.645,0-47.356,0c7.848-7.894,15.893-15.987,24.056-24.199
		        C1160.41,734.08,1168.391,742.369,1176.102,750.376z" />
<path fill="#FFF" d="M1232.75,750.395c-14.226,0-29.344,0-44.463,0c-0.102-0.132-0.203-0.264-0.306-0.397
		        c7.507-7.551,15.011-15.103,22.587-22.726C1218.155,735.182,1225.648,742.993,1232.75,750.395z" />
<path fill="#FFF" d="M1099.303,725.719c14.991,0,30.24,0,44.776,0c-7.088,7.575-14.462,15.454-21.7,23.189
		        C1114.381,740.87,1106.807,733.259,1099.303,725.719z" />
<path fill="#FFF" d="M1160.161,725.715c14.688,0,29.97,0,44.769,0c-7.214,7.593-14.636,15.402-22.139,23.296
		        C1174.964,740.953,1167.448,733.216,1160.161,725.715z" />
<path fill="#FFF" d="M1093.716,727.284c8.171,7.953,15.838,15.416,23.695,23.063c-15.493,0-30.796,0-45.313,0
		        C1079.022,742.961,1086.311,735.185,1093.716,727.284z" />
<path fill="#FFF" d="M1139.953,824.712c-0.663-0.569-1.166-0.961-1.624-1.401c-5.134-4.939-10.243-9.905-15.404-14.818
		        c-1.157-1.102-1.26-2.031-0.396-3.421c5.457-8.796,10.83-17.643,16.233-26.47c0.268-0.437,0.575-0.851,1.19-1.185
		        C1139.953,793.053,1139.953,808.688,1139.953,824.712z" />
<path fill="#FFF" d="M1152.479,836.195c0-19.864,0-39.6,0-59.335c0.102-0.024,0.206-0.05,0.308-0.074
		        c0.438,1.386,0.905,2.766,1.312,4.161c3.942,13.548,7.886,27.092,11.777,40.654c0.163,0.569,0.062,1.511-0.312,1.893
		        c-4.146,4.235-8.37,8.395-12.578,12.569C1152.919,836.131,1152.775,836.124,1152.479,836.195z" />
<path fill="#FFF" d="M1087.435,773.937c-6.106-5.909-12.063-11.674-18.418-17.823c12.412,0,24.259,0,36.671,0
		        C1099.528,762.128,1093.589,767.927,1087.435,773.937z" />
<path fill="#FFF" d="M1095.7,782.179c5.104-4.745,9.917-9.216,14.991-13.932c0,9.598,0,18.864,0,28.561
		        C1105.56,791.801,1100.67,787.03,1095.7,782.179z" />
<path fill="#FFF" d="M1123.42,779.079c0-7.408,0-14.815,0-22.382c4.703,0,9.337,0,14.236,0
		        c-4.629,7.586-9.206,15.085-13.783,22.584C1123.723,779.214,1123.571,779.146,1123.42,779.079z" />
        </g>    
</svg>