<?xml version="1.0" encoding="utf-8"?>
<!-- Generator: Adobe Illustrator 16.0.0, SVG Export Plug-In . SVG Version: 6.00 Build 0)  -->
<!DOCTYPE svg PUBLIC "-//W3C//DTD SVG 1.1//EN" "http://www.w3.org/Graphics/SVG/1.1/DTD/svg11.dtd">
<svg version="1.1" id="Layer_1" xmlns="http://www.w3.org/2000/svg" xmlns:xlink="http://www.w3.org/1999/xlink" x="0px" y="0px"
	 width="112px" height="115px" viewBox="0 0 112 115" enable-background="new 0 0 112 115" xml:space="preserve">
<path fill-rule="evenodd" clip-rule="evenodd" fill="#C6C6C6" d="M29.613,112.993c-4.697-1.667-6.079-5.275-6.447-9.942
	c-1.099-13.914-2.485-27.805-3.756-41.704c-0.531-5.807-1.105-11.61-1.564-17.422c-0.334-4.235,2.104-7.003,6.346-7.014
	c21.864-0.052,43.729-0.052,65.593,0c4.242,0.01,6.723,2.788,6.35,7.007c-1.028,11.615-2.166,23.22-3.231,34.832
	c-0.735,8.012-1.586,16.019-2.072,24.048c-0.287,4.747-1.634,8.483-6.458,10.195C66.12,112.993,47.867,112.993,29.613,112.993z
	 M50.055,50.52c0,16.291,0,32.413,0,48.516c4.751,0,9.305,0,13.911,0c0-16.237,0-32.298,0-48.516
	C59.322,50.52,54.836,50.52,50.055,50.52z M43.326,99.103c0-4.396,0-8.572,0-12.749c0-11.182,0.025-22.364-0.055-33.545
	c-0.006-0.813-0.75-2.307-1.2-2.326c-4.241-0.179-8.492-0.106-12.974-0.106c1.18,16.444,2.335,32.54,3.498,48.727
	C36.211,99.103,39.558,99.103,43.326,99.103z M70.853,50.511c0,16.311,0,32.422,0,48.537c3.602,0,7.009,0,10.55,0
	c1.161-16.228,2.311-32.298,3.472-48.537C80.107,50.511,75.624,50.511,70.853,50.511z"/>
<path fill-rule="evenodd" clip-rule="evenodd" fill="#C6C6C6" d="M72.04,1.993c3.421,1.429,4.861,4.063,4.989,7.698
	c0.07,2.021,0.574,4.027,0.916,6.256c2.928,0,5.705-0.003,8.482,0c8.567,0.01,12.763,4.67,11.943,13.473
	c-27.523,0-55.065,0-82.604,0c-1.564-7.541,3.121-13.385,10.809-13.467c3.106-0.034,6.213-0.006,9.463-0.006
	c0.345-2.232,0.86-4.239,0.922-6.26c0.111-3.648,1.576-6.261,4.986-7.695C51.978,1.993,62.009,1.993,72.04,1.993z M70.143,8.968
	c-8.95,0-17.544,0-26.325,0c-0.31,2.301-0.608,4.516-0.917,6.813c9.566,0,18.794,0,28.221,0
	C70.782,13.421,70.471,11.253,70.143,8.968z"/>
</svg>
